<?xml version="1.0" encoding="UTF-8" standalone="no"?><!DOCTYPE svg PUBLIC "-//W3C//DTD SVG 1.1//EN" "http://www.w3.org/Graphics/SVG/1.1/DTD/svg11.dtd"><svg width="100%" height="100%" viewBox="0 0 3334 1668" version="1.1" xmlns="http://www.w3.org/2000/svg" xmlnsXlink="http://www.w3.org/1999/xlink" xmlSpace="preserve" xmlnsSerif="http://www.serif.com/" style="fill-rule:evenodd;clip-rule:evenodd;stroke-linejoin:round;stroke-miterlimit:2;"><rect id="Artboard1" x="0" y="0" width="3333.33" height="1667.28" style="fill:none;"/><g id="Artboard11" serifId="Artboard1"><g><path d="M638.02,1275.51l-40.14,0c-1.117,0 -2.023,0.907 -2.023,2.023c-0,1.117 0.906,2.023 2.023,2.023l41.838,-0c0.624,-0 1.182,-0.283 1.553,-0.728c4.186,4.514 7.819,9.464 10.804,15.071l-72.127,-0c-1.117,-0 -2.023,0.906 -2.023,2.023c-0,1.116 0.906,2.023 2.023,2.023l72.639,-0c0.481,-0 0.923,-0.169 1.27,-0.45c2.067,4.489 3.744,9.388 4.99,14.793l-88.094,-0c-1.117,-0 -2.023,0.906 -2.023,2.023c-0,1.116 0.906,2.023 2.023,2.023l88.732,-0c0.065,-0 0.13,-0.004 0.194,-0.01c0.812,4.446 1.351,9.217 1.596,14.362l-93.281,0c-1.116,0 -2.023,0.907 -2.023,2.023c0,1.117 0.907,2.023 2.023,2.023l93.411,0c0.015,0.818 0.022,1.649 0.022,2.489c-0,2.538 2.043,4.612 4.582,4.612l13.817,0c2.539,0 4.582,-2.074 4.582,-4.612c-0,-53.164 -21.909,-75.649 -43.587,-90.813l-1.138,-0.695c-7.273,5.006 -14.64,9.365 -21.652,13.492c-0.289,0.172 -0.564,0.314 -0.853,0.475l4.425,2.752c6.021,4.094 11.536,8.357 16.417,13.078Zm0.416,-203.307l-40.556,-0c-1.117,-0 -2.023,0.906 -2.023,2.023c-0,1.116 0.906,2.023 2.023,2.023l41.838,-0c0.736,-0 1.381,-0.394 1.734,-0.983c4.288,4.583 8.005,9.616 11.05,15.328l-72.554,-0c-1.117,-0 -2.023,0.906 -2.023,2.023c-0,1.116 0.906,2.023 2.023,2.023l72.639,-0c0.631,-0 1.195,-0.29 1.565,-0.743c2.134,4.571 3.863,9.566 5.143,15.086l-88.542,0c-1.117,0 -2.023,0.907 -2.023,2.023c-0,1.117 0.906,2.023 2.023,2.023l88.732,0c0.22,0 0.432,-0.035 0.63,-0.1c0.826,4.468 1.377,9.268 1.63,14.445l-93.751,0c-1.116,0 -2.023,0.907 -2.023,2.023c0,1.117 0.907,2.023 2.023,2.023l93.887,0c0.011,0.514 0.017,1.027 0.021,1.544c-0.293,0.605 -0.475,1.242 -0.475,1.959c-0,4.146 -0.136,8.092 -0.4,11.854l-93.033,-0c-1.116,-0 -2.023,0.906 -2.023,2.023c0,1.116 0.907,2.022 2.023,2.022l92.693,0c-0.504,5.135 -1.257,9.903 -2.236,14.345l-87.698,0c-1.117,0 -2.023,0.907 -2.023,2.023c-0,1.117 0.906,2.023 2.023,2.023l86.722,0c-1.377,5.236 -3.085,9.992 -5.077,14.345l-75.208,0c-1.117,0 -2.023,0.907 -2.023,2.023c-0,1.117 0.906,2.023 2.023,2.023l73.215,0c-2.844,5.38 -6.154,10.106 -9.825,14.344l-52.356,-0c-1.117,-0 -2.023,0.906 -2.023,2.023c-0,1.116 0.906,2.023 2.023,2.023l48.603,-0c-5.419,5.469 -11.472,10.102 -17.879,14.345l-9.575,-0c-1.116,-0 -2.023,0.906 -2.023,2.023c0,1.116 0.907,2.023 2.023,2.023l3.196,-0c-4.307,2.629 -8.73,5.157 -13.187,7.704c-32.782,18.731 -66.695,38.101 -66.695,105.132c0,2.538 2.046,4.612 4.583,4.612l13.813,0c2.538,0 4.584,-2.074 4.584,-4.612c0,-52.001 26.73,-67.719 57.686,-85.946c33.109,-19.491 70.59,-41.636 71.025,-115.119c0.343,-0.644 0.566,-1.335 0.566,-2.118c-0,-53.158 -21.878,-75.68 -43.553,-90.843l-1.138,-0.696c-7.274,5.002 -14.673,9.368 -21.685,13.497c-0.289,0.17 -0.532,0.34 -0.821,0.506l4.393,2.719c5.975,4.061 11.448,8.295 16.296,12.982Zm-0.159,-202.297l-39.386,0c-1.117,0 -2.023,0.907 -2.023,2.023c0,1.117 0.906,2.023 2.023,2.023l41.838,0c0.423,0 0.816,-0.13 1.141,-0.353c4.037,4.413 7.549,9.245 10.447,14.698l-71.358,0c-1.116,0 -2.023,0.906 -2.023,2.023c0,1.116 0.907,2.023 2.023,2.023l72.639,-0c0.229,-0 0.449,-0.038 0.654,-0.109c1.993,4.4 3.615,9.186 4.826,14.453l-87.314,-0c-1.116,-0 -2.023,0.906 -2.023,2.023c0,1.116 0.907,2.023 2.023,2.023l88.146,-0c0.809,4.441 1.345,9.206 1.589,14.345l-92.493,-0c-1.117,-0 -2.023,0.906 -2.023,2.023c-0,1.116 0.906,2.023 2.023,2.023l92.622,-0c0.015,0.812 0.022,1.631 0.022,2.459c-0,0.469 0.151,0.902 0.283,1.329c-0.024,3.672 -0.156,7.186 -0.391,10.556l-93.548,0c-1.116,0 -2.023,0.907 -2.023,2.023c0,1.117 0.907,2.023 2.023,2.023l93.211,0c-0.5,5.133 -1.25,9.902 -2.224,14.345l-88.228,0c-1.117,0 -2.023,0.907 -2.023,2.023c-0,1.117 0.906,2.023 2.023,2.023l87.256,0c-1.37,5.233 -3.071,9.991 -5.056,14.345l-75.763,-0c-1.117,-0 -2.023,0.906 -2.023,2.023c-0,1.116 0.906,2.023 2.023,2.023l73.778,-0c-2.833,5.377 -6.13,10.104 -9.789,14.344l-52.955,-0c-1.117,-0 -2.023,0.906 -2.023,2.023c-0,1.116 0.906,2.023 2.023,2.023l49.218,-0c-5.401,5.471 -11.433,10.104 -17.82,14.345l-10.249,-0c-1.116,-0 -2.023,0.906 -2.023,2.022c0,1.117 0.907,2.023 2.023,2.023l3.885,0c-4.36,2.668 -8.831,5.224 -13.338,7.8c-32.572,18.61 -66.234,37.929 -66.664,103.93c-0.345,0.644 -0.569,1.335 -0.569,2.117c0,56.446 21.247,82.369 44.695,99.505c5.798,-3.678 11.702,-7.022 17.448,-10.304c1.637,-0.938 3.254,-1.885 4.868,-2.813c-23.942,-15.507 -43.664,-36.324 -43.968,-85.313c0.292,-0.605 0.506,-1.243 0.506,-1.96c-0,-51.994 26.73,-67.746 57.686,-85.976c33.301,-19.604 71.022,-41.811 71.022,-116.321c-0,-0.588 -0.111,-1.157 -0.314,-1.675c-0.424,-52.037 -22.101,-74.281 -43.556,-89.295l-1.138,-0.695c-7.274,5.002 -14.673,9.368 -21.683,13.497c-0.29,0.17 -0.532,0.308 -0.823,0.474l4.394,2.75c6.036,4.103 11.563,8.375 16.453,13.109Zm22.971,-128.734l-92.242,-0c-1.117,-0 -2.023,0.906 -2.023,2.023c-0,1.116 0.906,2.023 2.023,2.023l91.901,-0c-0.505,5.133 -1.26,9.901 -2.241,14.344l-86.902,0c-1.116,0 -2.023,0.907 -2.023,2.023c0,1.117 0.907,2.023 2.023,2.023l85.925,0c-1.379,5.235 -3.089,9.992 -5.085,14.345l-74.403,0c-1.116,0 -2.023,0.907 -2.023,2.023c0,1.117 0.907,2.023 2.023,2.023l72.408,0c-2.85,5.381 -6.164,10.107 -9.838,14.344l-51.536,0c-1.116,0 -2.023,0.907 -2.023,2.023c0,1.117 0.907,2.023 2.023,2.023l47.78,-0c-5.425,5.469 -11.483,10.102 -17.895,14.345l-8.736,-0c-1.116,-0 -2.022,0.906 -2.022,2.023c-0,1.116 0.906,2.023 2.022,2.023l2.354,-0c-4.29,2.618 -8.696,5.136 -13.135,7.673c-32.781,18.731 -66.663,38.096 -66.663,105.13c0,0.591 0.114,1.158 0.316,1.675c0.39,55.362 21.465,81.012 44.695,97.988c5.798,-3.678 11.67,-7.053 17.417,-10.335c1.637,-0.939 3.254,-1.886 4.867,-2.814c-24.128,-15.628 -43.999,-36.54 -43.999,-86.356c-0,-0.467 -0.154,-0.902 -0.284,-1.327c0.414,-51.026 26.94,-66.688 57.654,-84.775c30.031,-17.68 63.6,-37.627 69.922,-95.996c49.937,0.874 65.524,27.154 83.447,57.592c18.713,31.79 39.944,67.553 106.641,70.74c0.212,0.045 10.105,0.217 10.307,0.19c-0,-0.001 76.842,0.87 74.253,-0.253c-23.527,-10.202 -61.963,-70.924 -67.547,-80.413c-12.532,-21.283 -26.258,-44.313 -53.932,-58.192c33.227,-13.196 48.359,-38.528 62.054,-61.795c5.584,-9.49 44.02,-70.212 67.547,-80.413c1.295,-0.562 -17.276,-0.615 -36.16,-0.538c-18.885,0.078 -38.093,0.284 -38.093,0.285c-0.202,-0.028 -10.094,0.144 -10.297,0.189c-66.707,3.187 -87.938,38.95 -106.651,70.741c-18.226,30.956 -33.955,57.685 -85.945,57.686c-0.041,0 -2.519,0.024 -4.613,0.032c0.01,-1.616 0,-3.639 0,-3.667c0.071,-51.994 26.825,-67.662 57.807,-85.85c31.821,-18.672 67.627,-39.857 70.905,-106.553c0.04,-0.206 0.212,-10.101 0.182,-10.304c-0,-0 0.971,-76.841 -0.152,-74.249c-10.236,23.515 -71.016,61.877 -80.514,67.453c-32.944,19.333 -70.167,41.295 -71.117,113.76c-0.011,0.097 -0.092,0.153 -0.092,0.253l0,2.212l-0.131,101.086l0.223,-0c-0.008,4.034 -0.145,7.878 -0.402,11.537Zm-257.935,-296.301c-1.128,-2.592 -0.158,74.249 -0.159,74.249c-0.028,0.203 0.144,10.098 0.19,10.304c3.278,66.696 39.084,87.881 70.899,106.553c30.981,18.188 57.741,33.855 57.812,85.85c0,0.028 -0.009,2.038 0,3.635c-0.352,-0.002 -1.411,0 -1.422,0c-51.995,0 -67.715,-26.73 -85.945,-57.686c-18.715,-31.791 -39.948,-67.554 -106.648,-70.741c-0.206,-0.045 -10.101,-0.217 -10.304,-0.189c-0,-0.001 -19.202,-0.207 -38.089,-0.285c-18.886,-0.077 -37.457,-0.024 -36.16,0.538c23.529,10.201 61.959,70.923 67.547,80.413c13.698,23.267 28.821,48.6 62.049,61.795c-27.668,13.879 -41.395,36.909 -53.925,58.192c-5.588,9.489 -44.019,70.211 -67.548,80.413c-2.593,1.123 74.249,0.252 74.249,0.253c0.204,0.027 10.098,-0.145 10.305,-0.19c66.7,-3.187 87.933,-38.95 106.648,-70.74c17.646,-29.967 33.048,-55.896 81.171,-57.528c4.511,42.575 23.24,64.167 43.652,79.084c5.798,-3.677 11.669,-7.053 17.416,-10.336c1.637,-0.938 3.254,-1.853 4.869,-2.781c-24.129,-15.628 -44,-36.572 -44,-86.387c0,-0.882 -0.325,-1.673 -0.758,-2.371l-0.127,-98.367l0,-2.212c-0.001,-0.1 -0.086,-0.156 -0.095,-0.253c-0.954,-72.465 -38.175,-94.427 -71.12,-113.76c-9.497,-5.576 -70.275,-43.938 -80.507,-67.453Zm350.442,304.55l20.361,0c0.051,0.002 0.101,0.033 0.162,0.033c61.701,-0 78.926,30.14 97.163,62.047c8.911,15.599 32.307,43.715 32.307,43.715l-22.445,0c-60.001,-0.677 -77.115,-30.441 -95.14,-61.984c-8.941,-15.636 -18.075,-31.47 -32.408,-43.811Zm-308.087,0l20.357,0c-14.327,12.341 -23.466,28.175 -32.4,43.811c-18.026,31.543 -35.146,61.307 -95.142,61.984l-22.443,0c-0,0 23.391,-28.117 32.305,-43.715c18.234,-31.907 35.464,-62.047 97.165,-62.047c0.055,-0 0.103,-0.031 0.158,-0.033Zm245.729,24.118c5.938,45.679 32.651,61.018 60.78,77.094c0.395,0.225 0.779,0.471 1.174,0.695c-3.591,-43.265 -28.544,-58.05 -57.18,-74.912c-1.577,-0.929 -3.186,-1.931 -4.774,-2.877Zm-167.655,0c-1.591,0.945 -3.196,1.948 -4.773,2.877c-28.634,16.862 -53.588,31.647 -57.181,74.912c0.394,-0.224 0.777,-0.47 1.17,-0.695c28.132,-16.076 54.844,-31.415 60.784,-77.094Zm272.495,-11c5.948,45.679 32.661,61.018 60.791,77.095c0.394,0.223 0.778,0.47 1.163,0.694c-3.591,-43.265 -28.544,-58.05 -57.179,-74.912c-1.578,-0.928 -3.176,-1.932 -4.775,-2.877Zm-372.695,0c-1.592,0.945 -3.197,1.949 -4.773,2.877c-28.634,16.862 -53.587,31.647 -57.18,74.912c0.392,-0.224 0.777,-0.471 1.169,-0.694c28.132,-16.077 54.844,-31.416 60.784,-77.095Zm478.618,-23.042c5.948,45.678 32.651,61.017 60.79,77.094c0.395,0.223 0.769,0.469 1.163,0.695c-3.59,-43.265 -28.544,-58.051 -57.179,-74.913c-1.578,-0.928 -3.176,-1.931 -4.774,-2.876Zm-584.539,-0c-1.591,0.944 -3.198,1.948 -4.773,2.876c-28.635,16.862 -53.588,31.648 -57.181,74.913c0.394,-0.225 0.777,-0.472 1.17,-0.695c28.131,-16.077 54.844,-31.416 60.784,-77.094Zm-61.954,-77.789c5.94,45.678 32.652,61.016 60.784,77.093c0.393,0.224 0.776,0.47 1.17,0.696c-3.593,-43.266 -28.546,-58.051 -57.18,-74.914c-1.577,-0.927 -3.183,-1.931 -4.774,-2.875Zm708.446,-0c-1.588,0.944 -3.196,1.948 -4.774,2.875c-28.625,16.863 -53.578,31.648 -57.179,74.914c0.395,-0.225 0.779,-0.472 1.173,-0.696c28.13,-16.076 54.843,-31.415 60.78,-77.093Zm-656.196,-41.914l22.442,-0c59.996,0.677 77.117,30.442 95.143,61.984c8.933,15.636 18.073,31.47 32.398,43.811l-20.356,-0c-0.054,-0.002 -0.102,-0.032 -0.158,-0.032c-61.7,-0.001 -78.931,-30.141 -97.165,-62.048c-8.913,-15.599 -32.304,-43.715 -32.304,-43.715Zm581.508,-0l22.445,-0c0,-0 -23.395,28.116 -32.306,43.715c-18.238,31.907 -35.463,62.047 -97.164,62.048c-0.06,0 -0.101,0.03 -0.161,0.032l-20.351,-0c14.322,-12.34 23.456,-28.175 32.397,-43.811c18.025,-31.543 35.139,-61.307 95.14,-61.984Zm-321.431,43.936c3.879,29.831 21.329,39.823 39.701,50.322c0.257,0.145 0.502,0.326 0.759,0.473c-2.347,-28.255 -18.631,-37.918 -37.33,-48.93c-1.03,-0.606 -2.09,-1.248 -3.13,-1.865Zm80.95,0c-1.039,0.617 -2.1,1.26 -3.128,1.865c-18.701,11.012 -34.984,20.675 -37.331,48.93c0.257,-0.147 0.503,-0.328 0.759,-0.473c18.371,-10.499 35.822,-20.491 39.7,-50.322Zm-295.479,-29.048c3.593,43.265 28.547,58.05 57.181,74.912c1.576,0.928 3.181,1.932 4.772,2.877c-5.939,-45.679 -32.652,-61.018 -60.783,-77.094c-0.394,-0.224 -0.777,-0.471 -1.17,-0.695Zm512.858,-0c-0.394,0.224 -0.779,0.471 -1.173,0.695c-28.129,16.076 -54.843,31.415 -60.78,77.094c1.588,-0.945 3.196,-1.949 4.764,-2.877c28.635,-16.862 53.588,-31.647 57.189,-74.912Zm-298.329,-24.782c3.879,29.831 21.329,39.854 39.701,50.353c0.257,0.147 0.502,0.295 0.759,0.443c-2.347,-28.255 -18.631,-37.918 -37.33,-48.93c-1.03,-0.607 -2.09,-1.249 -3.13,-1.866Zm80.95,0c-1.039,0.617 -2.1,1.259 -3.128,1.866c-18.701,11.012 -34.984,20.675 -37.331,48.93c0.257,-0.148 0.503,-0.296 0.759,-0.443c18.371,-10.499 35.822,-20.522 39.7,-50.353Zm141.579,-110.631l-0.031,22.442c-0.758,59.996 -30.547,77.066 -62.115,95.048c-15.648,8.912 -31.508,18.027 -43.868,32.336l0.03,-20.356c0,-0.055 0.031,-0.103 0.031,-0.158c0.081,-61.7 30.243,-78.88 62.176,-97.071c15.607,-8.892 43.777,-32.241 43.777,-32.241Zm-364.452,0c-0,0 28.135,23.349 43.747,32.241c31.932,18.191 62.121,35.371 62.206,97.071c-0,0.055 0.029,0.103 0.031,0.158l0.032,20.356c-12.36,-14.309 -28.226,-23.424 -43.874,-32.336c-31.567,-17.982 -61.351,-35.052 -62.111,-95.048l-0.031,-22.442Zm141.923,56.801c3.879,29.831 21.329,39.855 39.701,50.353c0.257,0.147 0.502,0.296 0.759,0.443c-2.347,-28.255 -18.631,-37.919 -37.33,-48.931c-1.03,-0.605 -2.09,-1.248 -3.13,-1.865Zm80.95,0c-1.039,0.617 -2.1,1.26 -3.128,1.865c-18.701,11.012 -34.984,20.676 -37.331,48.931c0.257,-0.147 0.503,-0.296 0.759,-0.443c18.371,-10.498 35.822,-20.522 39.7,-50.353Zm-207.922,-11.284c0.225,0.393 0.47,0.777 0.695,1.169c16.115,28.111 31.502,54.812 77.189,60.689c-0.948,-1.59 -1.979,-3.198 -2.908,-4.773c-16.902,-28.611 -31.706,-53.551 -74.976,-57.085Zm334.551,0c-43.271,3.534 -58.11,28.474 -75.012,57.085c-0.93,1.575 -1.932,3.183 -2.872,4.773c45.688,-5.877 61.073,-32.578 77.186,-60.689c0.222,-0.392 0.465,-0.776 0.698,-1.169Zm-166.392,-219.334c-39.653,18.335 -67.658,61.41 -67.991,111.833c-0.333,50.422 27.098,93.883 66.505,112.716c39.665,-18.329 67.69,-61.431 68.024,-111.864c0.334,-50.431 -27.119,-93.857 -66.538,-112.685Zm-0.222,30.282c26.675,13.647 45.236,45.121 45.013,81.677c-0.222,36.555 -19.182,67.822 -46.024,81.108c-26.667,-13.651 -45.236,-45.161 -45.011,-81.709c0.224,-36.548 19.19,-67.786 46.022,-81.076Zm144.392,58.729c-1.599,0.944 -3.197,1.949 -4.775,2.876c-28.635,16.863 -53.588,31.647 -57.179,74.913c0.395,-0.225 0.779,-0.471 1.163,-0.695c28.14,-16.077 54.853,-31.416 60.791,-77.094Zm-291.563,-0c5.94,45.678 32.652,61.017 60.785,77.094c0.392,0.224 0.775,0.47 1.169,0.695c-3.593,-43.266 -28.546,-58.05 -57.18,-74.913c-1.576,-0.928 -3.182,-1.932 -4.774,-2.876Zm146.918,-21.937c-12.77,7.383 -21.798,24.708 -21.904,45.012c-0.107,20.303 8.709,37.806 21.399,45.39c12.774,-7.381 21.798,-24.736 21.904,-45.044c0.108,-20.307 -8.703,-37.776 -21.399,-45.358Z" style="fill:#fff;"/><path d="M609.892,246.505c-324.048,-0 -587.134,263.085 -587.134,587.134c0,324.048 263.086,587.133 587.134,587.133c324.048,0 587.134,-263.085 587.134,-587.133c0,-324.049 -263.086,-587.134 -587.134,-587.134Zm0,35.401c304.509,0 551.732,247.223 551.732,551.733c0,304.509 -247.223,551.732 -551.732,551.732c-304.509,-0 -551.732,-247.223 -551.732,-551.732c0,-304.51 247.223,-551.733 551.732,-551.733Z" style="fill:#fff;"/><path d="M609.892,223.746c-336.608,0 -609.892,273.284 -609.892,609.893c0,336.608 273.284,609.892 609.892,609.892c336.609,-0 609.893,-273.284 609.893,-609.892c-0,-336.609 -273.284,-609.893 -609.893,-609.893Zm0,80.919c291.949,-0 528.974,237.025 528.974,528.974c-0,291.948 -237.025,528.973 -528.974,528.973c-291.948,0 -528.973,-237.025 -528.973,-528.973c-0,-291.949 237.025,-528.974 528.973,-528.974Z" style="fill:#fff;"/></g><text x="1483.75px" y="1096.49px" style="font-family:'Impact', sans-serif;font-stretch:condensed;font-size:675px;fill:#fff;">BioFi</text></g></svg>