<svg width="100%"
 height="100%" 
 viewBox="0 0 2667 2134" 
 version="1.1" 
 xmlns="http://www.w3.org/2000/svg" 
 xmlnsXlink="http://www.w3.org/1999/xlink" 
 xmlSpace="preserve" 
 xmlnsSerif="http://www.serif.com/" 
 style="fill-rule:evenodd;clip-rule:evenodd;stroke-linejoin:round;stroke-miterlimit:2;">
 <path d="M2185.55,290.983c-0.681,-1.319 -1.81,-2.353 -3.184,-2.916c-158.846,-72.881 -326.476,-124.851 -498.691,-154.609c-3.201,-0.595 -6.443,0.94 -8.013,3.792c-22.825,41.429 -43.546,83.983 -62.083,127.5c-185.638,-28.18 -374.47,-28.18 -560.108,-0c-18.66,-43.628 -39.713,-86.192 -63.063,-127.5c-1.635,-2.785 -4.826,-4.294 -8.016,-3.792c-172.234,29.696 -339.875,81.67 -498.7,154.613c-1.36,0.576 -2.507,1.561 -3.284,2.816c-317.621,474.326 -404.629,936.988 -361.946,1393.92c0.243,2.262 1.394,4.331 3.188,5.73c184.945,136.937 391.817,241.467 611.771,309.12c3.165,0.95 6.606,-0.178 8.596,-2.816c47.241,-64.28 89.101,-132.347 125.154,-203.509c0.551,-1.086 0.838,-2.288 0.838,-3.506c0,-3.245 -2.037,-6.161 -5.084,-7.277c-66.01,-25.257 -129.916,-55.704 -191.117,-91.054c-2.397,-1.409 -3.874,-3.99 -3.874,-6.771c0,-2.453 1.15,-4.77 3.103,-6.254c12.842,-9.621 25.692,-19.629 37.955,-29.738c2.218,-1.827 5.293,-2.241 7.916,-1.066c400.954,182.987 835.042,182.987 1231.25,-0c2.631,-1.251 5.761,-0.872 8.017,0.971c12.267,10.108 25.112,20.212 38.05,29.833c1.98,1.481 3.148,3.813 3.148,6.286c0,2.759 -1.455,5.324 -3.823,6.739c-61.062,35.648 -125.026,66.075 -191.208,90.958c-3.024,1.151 -5.034,4.066 -5.034,7.302c-0,1.244 0.297,2.471 0.867,3.577c36.656,70.766 78.454,138.747 125.058,203.396c1.935,2.713 5.41,3.892 8.596,2.917c220.348,-67.424 427.581,-171.963 612.758,-309.108c1.823,-1.331 2.986,-3.386 3.188,-5.634c51.1,-528.262 -85.55,-987.133 -362.225,-1393.92Zm-1258.5,1115.6c-120.717,0 -220.183,-110.779 -220.183,-246.829c-0,-136.05 97.537,-246.837 220.183,-246.837c123.604,-0 222.108,111.75 220.179,246.829c0,136.058 -97.542,246.837 -220.179,246.837Zm814.083,0c-120.712,0 -220.179,-110.779 -220.179,-246.829c0,-136.05 97.538,-246.837 220.179,-246.837c123.613,-0 222.113,111.75 220.184,246.829c-0,136.058 -96.571,246.837 -220.184,246.837Z" style="fill:#fff;fill-rule:nonzero;"/>
 </svg>